<?xml version="1.0" encoding="utf-8"?>
<!-- Generator: Adobe Illustrator 24.2.3, SVG Export Plug-In . SVG Version: 6.00 Build 0)  -->
<svg version="1.1" id="圖層_1" xmlns="http://www.w3.org/2000/svg" xmlns:xlink="http://www.w3.org/1999/xlink" x="0px" y="0px"
	 viewBox="0 0 80 80" style="enable-background:new 0 0 80 80;" xml:space="preserve">
<style type="text/css">
	.st0{fill:#3ACC01;}
	.st1{fill:#FEFEFE;}
</style>
<g>
	<path class="st0" d="M0,73.48C0,51.29,0,29.1,0,6.91c0.16-1.39,0.43-2.72,1.37-3.86c1.42-1.73,3.09-2.96,5.45-2.92
		c0.08,0,0.15-0.03,0.21-0.08c22.13,0,44.26,0,66.38,0c1.13,0.18,2.31,0.2,3.31,0.9c1.63,1.14,2.98,2.46,3.25,4.56
		c0,23.12,0,46.25,0,69.37c-0.34,2.16-1.73,3.52-3.51,4.59c-0.7,0.42-1.47,0.48-2.25,0.48c-14.83,0-29.66,0-44.5,0
		c-7.78,0-15.56,0-23.34,0c-3.01,0-5.84-2.5-6.21-5.48C0.11,74.14,0.12,73.79,0,73.48z"/>
	<path class="st1" d="M40.28,13.75c7.57,0.1,14.54,2.03,20.5,6.88c3.91,3.18,6.61,7.18,7.54,12.19c1.03,5.55-0.31,10.64-3.48,15.21
		c-0.96,1.38-2.23,2.67-3.86,3.43c-0.79,0.37-1.34,1.06-2,1.61c-5.21,4.4-10.63,8.51-16.48,12.04c-1.11,0.67-2.24,1.32-3.48,1.74
		c-1.03,0.35-1.4,0.1-1.45-0.99c-0.04-1.02,0.27-2,0.44-3c0.12-0.66,0.25-1.33,0.17-2.01c-0.16-1.24-0.88-1.77-2.12-1.96
		c-8.68-1.37-16.28-4.79-21.46-12.2c-5.09-7.29-4.23-16.74,1.83-23.39c4.35-4.77,9.87-7.41,16.09-8.75
		C35.08,14.01,37.67,13.76,40.28,13.75z"/>
	<path class="st0" d="M45.25,37.63c0-2.18,0-4.35,0-6.53c0-0.97,0.18-1.16,1.17-1.23c0.1-0.01,0.21-0.01,0.31-0.01
		c1.59-0.02,1.72,0.11,1.72,1.7c0,3.64,0,7.27,0,10.91c0,0.39,0.04,0.85-0.42,1c-0.6,0.19-1.25,0.21-1.83-0.01
		c-0.3-0.11-0.07-0.57-0.28-0.84c-1.79-2.28-3.57-4.57-5.53-6.84c0,0.42,0,0.84,0,1.26c0,1.51,0,3.01,0,4.52
		c-0.01,1.19-0.65,1.99-1.61,2c-0.96,0.01-1.62-0.79-1.62-1.97c0-3.4-0.01-6.81,0.01-10.21c0-0.49-0.23-1.15,0.43-1.36
		c0.74-0.23,1.54-0.37,2.24,0.15c0.36,0.26,0.62,0.62,0.87,0.99c1.37,2.05,2.74,4.1,4.11,6.15c0.08,0.12,0.18,0.24,0.27,0.36
		C45.15,37.67,45.2,37.65,45.25,37.63z"/>
	<path class="st0" d="M50.91,36.75c0-1.89-0.01-3.79,0-5.68c0.01-0.99,0.23-1.19,1.2-1.19c1.9,0,3.8,0.02,5.69-0.01
		c0.75-0.01,1.13,0.28,1.14,1.03c0,0.1,0.02,0.21,0.02,0.31c0.08,1.75-0.07,1.91-1.82,1.91c-1.09,0-2.19,0.04-3.28-0.01
		c-0.62-0.03-0.61,0.31-0.57,0.72c0.04,0.37-0.25,0.93,0.55,0.91c1.33-0.04,2.65,0.01,3.98-0.02c0.77-0.02,1.11,0.32,1.12,1.05
		c0,0.1,0.02,0.21,0.02,0.31c0.07,1.72-0.08,1.88-1.77,1.88c-1.09,0-2.18,0.02-3.28-0.01c-0.45-0.01-0.63,0.08-0.64,0.59
		c-0.02,1.85-0.05,1.85,1.8,1.85c0.96,0,1.92,0.01,2.89,0c0.61-0.01,0.92,0.26,0.96,0.86c0,0.03,0.01,0.05,0.01,0.08
		c0.25,2.01,0.03,2.27-1.96,2.27c-1.64,0-3.28,0-4.91,0c-0.94,0-1.14-0.18-1.15-1.14C50.9,40.54,50.91,38.64,50.91,36.75z"/>
	<path class="st0" d="M21.82,36.37c0-1.79,0.02-3.58-0.01-5.38c-0.01-0.73,0.3-1.06,0.99-1.1c0.1-0.01,0.21-0.02,0.31-0.02
		c1.76-0.08,1.92,0.07,1.92,1.81c0,2.67,0.01,5.35-0.01,8.02c0,0.5,0.12,0.69,0.65,0.67c1.04-0.04,2.08-0.02,3.12-0.01
		c1.11,0.01,1.91,0.7,1.9,1.62c-0.02,0.9-0.8,1.57-1.86,1.57c-1.72,0.01-3.43,0.01-5.15,0c-1.18-0.01-1.83-0.65-1.84-1.83
		C21.81,39.95,21.82,38.16,21.82,36.37z"/>
	<path class="st0" d="M32.32,36.33c0-1.79,0.02-3.58-0.01-5.38c-0.01-0.71,0.3-1,0.95-1.05c0.16-0.01,0.31-0.03,0.47-0.03
		c1.67-0.04,1.82,0.11,1.82,1.77c0,3.22,0,6.44,0,9.66c0,0.26,0.01,0.52-0.02,0.78c-0.11,0.85-0.84,1.5-1.63,1.48
		c-0.82-0.02-1.55-0.75-1.56-1.63C32.31,40.07,32.32,38.2,32.32,36.33z"/>
</g>
</svg>
